<?xml version="1.0" encoding="UTF-8" standalone="no"?>
<svg
   version="1.1"
   id="Layer_1"
   x="0px"
   y="0px"
   width="100%"
   viewBox="0 0 1024 1024"
   enable-background="new 0 0 1024 1024"
   xml:space="preserve"
   sodipodi:docname="logo.svg"
   inkscape:version="1.4.2 (ebf0e940d0, 2025-05-08)"
   xmlns:inkscape="http://www.inkscape.org/namespaces/inkscape"
   xmlns:sodipodi="http://sodipodi.sourceforge.net/DTD/sodipodi-0.dtd"
   xmlns="http://www.w3.org/2000/svg"
   xmlns:svg="http://www.w3.org/2000/svg"><defs
   id="defs129" /><sodipodi:namedview
   id="namedview129"
   pagecolor="#ffffff"
   bordercolor="#000000"
   borderopacity="0.25"
   inkscape:showpageshadow="2"
   inkscape:pageopacity="0.0"
   inkscape:pagecheckerboard="0"
   inkscape:deskcolor="#d1d1d1"
   inkscape:zoom="0.54828397"
   inkscape:cx="516.15589"
   inkscape:cy="556.28108"
   inkscape:window-width="1920"
   inkscape:window-height="1012"
   inkscape:window-x="0"
   inkscape:window-y="29"
   inkscape:window-maximized="1"
   inkscape:current-layer="Layer_1" />

































































































































<g
   id="g1"><text
     xml:space="preserve"
     style="font-weight:500;font-size:186.747px;font-family:'JetBrainsMono Nerd Font Mono';-inkscape-font-specification:'JetBrainsMono Nerd Font Mono Medium';text-align:start;letter-spacing:0px;word-spacing:-0.116717px;writing-mode:lr-tb;direction:ltr;text-anchor:start;fill:#229da5;fill-opacity:1;stroke-width:2.9225"
     x="367.88846"
     y="632.92255"
     id="text133"><tspan
       sodipodi:role="line"
       id="tspan133"
       x="367.88846"
       y="632.92255"
       style="font-style:normal;font-variant:normal;font-weight:600;font-stretch:normal;font-size:186.747px;font-family:Poppins;-inkscape-font-specification:'Poppins Semi-Bold';stroke-width:2.9225">Mi</tspan></text><text
     xml:space="preserve"
     style="font-weight:500;font-size:186.747px;font-family:'JetBrainsMono Nerd Font Mono';-inkscape-font-specification:'JetBrainsMono Nerd Font Mono Medium';text-align:start;letter-spacing:0px;word-spacing:-0.116717px;writing-mode:lr-tb;direction:ltr;text-anchor:start;fill:#f37d64;fill-opacity:1;stroke-width:2.9225"
     x="589.33997"
     y="631.24207"
     id="text133-4"><tspan
       sodipodi:role="line"
       id="tspan133-0"
       x="589.33997"
       y="631.24207"
       style="font-style:normal;font-variant:normal;font-weight:600;font-stretch:normal;font-size:186.747px;font-family:Poppins;-inkscape-font-specification:'Poppins Semi-Bold';fill:#f37d64;fill-opacity:1;stroke-width:2.9225">Gao</tspan></text><path
     id="rect130"
     style="fill:#229da5;fill-opacity:1;stroke-width:1.11562"
     d="m 85.974609,474.26562 c -7.10819,10e-6 -12.830078,5.72189 -12.830078,12.83008 v 170.36914 c 0,7.10819 5.721888,12.83008 12.830078,12.83008 H 292.45508 c 7.10819,0 12.83008,-5.72189 12.83008,-12.83008 V 487.0957 c 0,-7.10819 -5.72189,-12.83008 -12.83008,-12.83008 z m 29.658201,66.24219 h 32.45703 c 5.65627,0 10.20899,7.5247 10.20899,16.8711 v 20.42382 c 0,9.3464 -4.55272,16.8711 -10.20899,16.8711 h -32.45703 c -5.65626,0 -10.20898,-7.5247 -10.20898,-16.8711 v -20.42382 c 0,-9.3464 4.55272,-16.8711 10.20898,-16.8711 z" /><path
     id="rect130-5"
     style="fill:#229da5;stroke-width:1.10687"
     d="m 214.91062,360.42906 120.29455,112.10726 c 9.62117,8.96635 11.80434,32.4053 0,32.36949 -140.18123,-0.42522 -138.87106,-1.2408 -275.322589,2e-5 -11.80037,0.10732 -9.62119,-23.40316 0,-32.36951 L 180.17713,360.42905 c 9.62117,-8.96635 25.11231,-8.96635 34.73349,10e-6 z"
     sodipodi:nodetypes="sssssss" /><circle
     style="fill:#229da5;fill-opacity:1;stroke-width:1.71588"
     id="path130-6"
     cx="237.53903"
     cy="523.724"
     r="82.802879" /><circle
     style="fill:#f37d64;fill-opacity:1;stroke-width:1.28087"
     id="path130"
     cx="237.53903"
     cy="523.724"
     r="61.810604" /><rect
     style="fill:#f37d64;fill-opacity:1;stroke-width:1.00157"
     id="rect131"
     width="34.821167"
     height="109.62217"
     x="-202.09938"
     y="610.69208"
     ry="19.345089"
     transform="rotate(-43.597894)" /><path
     id="rect132"
     style="fill:#229da5;stroke-width:0.830065"
     d="m 269.6985,577.27883 30.6213,-18.13897 c 0.26717,-0.15826 5.19195,4.42543 11.04211,10.27734 l 1.40799,1.40841 c 5.85015,5.85191 6.61446,7.06287 6.37284,7.25793 l -26.91656,21.72972 c -0.24164,0.19504 -5.19195,-4.42543 -11.04211,-10.27734 l -1.40798,-1.4084 c -5.85016,-5.85191 -10.34477,-10.69043 -10.07759,-10.84869 z"
     sodipodi:nodetypes="sssssssss" /><path
     style="font-weight:600;font-size:186.747px;font-family:Poppins;-inkscape-font-specification:'Poppins Semi-Bold';letter-spacing:0px;word-spacing:-0.116717px;fill:#229da5;stroke-width:2.9225"
     d="m 522.88846,502.57316 v 130.3494 h -26.14458 v -84.78313 l -34.92169,84.78313 h -19.79518 l -35.10843,-84.78313 v 84.78313 H 380.774 v -130.3494 h 29.69277 l 41.45783,96.92169 41.45784,-96.92169 z m 39.03015,14.56627 q -6.90964,0 -11.57831,-4.29518 -4.48193,-4.48193 -4.48193,-11.01808 0,-6.53614 4.48193,-10.83132 4.66867,-4.48193 11.57831,-4.48193 6.90964,0 11.39157,4.48193 4.66867,4.29518 4.66867,10.83132 0,6.53615 -4.66867,11.01808 -4.48193,4.29518 -11.39157,4.29518 z m 12.88554,12.3253 V 632.92256 H 548.65957 V 529.46473 Z"
     id="text136"
     aria-label="Mi" /><path
     style="font-weight:600;font-size:186.747px;font-family:Poppins;-inkscape-font-specification:'Poppins Semi-Bold';letter-spacing:0px;word-spacing:-0.116717px;fill:#f37d64;stroke-width:2.9225"
     d="m 692.98455,540.10952 q -4.48193,-8.21687 -12.32531,-12.51205 -7.84337,-4.29518 -18.3012,-4.29518 -11.57831,0 -20.54217,5.22892 -8.96386,5.22891 -14.00602,14.93975 -5.04217,9.71085 -5.04217,22.40964 0,13.07229 5.04217,22.78314 5.22891,9.71084 14.37951,14.93976 9.15061,5.22891 21.28916,5.22891 14.93976,0 24.46386,-7.84337 9.52409,-8.03012 12.51205,-22.22289 h -44.81928 v -19.98193 h 70.59036 v 22.78313 q -2.61446,13.63253 -11.20482,25.21085 -8.59036,11.57831 -22.22289,18.6747 -13.44578,6.90963 -30.25301,6.90963 -18.86145,0 -34.1747,-8.40361 -15.12651,-8.59036 -23.90362,-23.71687 -8.59036,-15.12651 -8.59036,-34.36145 0,-19.23494 8.59036,-34.36144 8.77711,-15.31326 23.90362,-23.71687 15.31325,-8.59036 33.98795,-8.59036 22.03614,0 38.28313,10.83132 16.24699,10.64458 22.40964,30.06627 z m 45.9397,39.03012 q 0,-15.68675 6.16265,-27.8253 6.34939,-12.13856 16.99397,-18.6747 10.83133,-6.53615 24.09037,-6.53615 11.57831,0 20.16867,4.66868 8.77711,4.66867 14.00603,11.76506 v -14.75301 h 26.33132 v 103.45783 h -26.33132 v -15.1265 q -5.04217,7.28313 -14.00603,12.13855 -8.77711,4.66868 -20.35542,4.66868 -13.07229,0 -23.90362,-6.7229 -10.64458,-6.72289 -16.99397,-18.86144 -6.16265,-12.3253 -6.16265,-28.1988 z m 81.42169,0.37349 q 0,-9.52409 -3.73494,-16.24698 -3.73494,-6.90964 -10.08434,-10.45784 -6.3494,-3.73494 -13.63253,-3.73494 -7.28314,0 -13.44579,3.5482 -6.16265,3.54819 -10.08433,10.45783 -3.73494,6.72289 -3.73494,16.06024 0,9.33735 3.73494,16.43374 3.92168,6.90964 10.08433,10.64457 6.3494,3.73494 13.44579,3.73494 7.28313,0 13.63253,-3.54819 6.3494,-3.73494 10.08434,-10.45783 3.73494,-6.90964 3.73494,-16.43374 z m 97.85529,53.40965 q -14.9397,0 -26.8915,-6.53615 -11.95183,-6.72289 -18.86147,-18.86145 -6.72289,-12.13855 -6.72289,-28.01205 0,-15.87349 6.90964,-28.01204 7.09639,-12.13856 19.23492,-18.6747 12.1386,-6.7229 27.0783,-6.7229 14.9398,0 27.0784,6.7229 12.1385,6.53614 19.0481,18.6747 7.0964,12.13855 7.0964,28.01204 0,15.8735 -7.2831,28.01205 -7.0964,12.13856 -19.4217,18.86145 -12.1385,6.53615 -27.2651,6.53615 z m 0,-22.78314 q 7.0964,0 13.2591,-3.36144 6.3494,-3.5482 10.0843,-10.45784 3.735,-6.90963 3.735,-16.80723 0,-14.75301 -7.8434,-22.59638 -7.6566,-8.03012 -18.8615,-8.03012 -11.2048,0 -18.8614,8.03012 -7.4699,7.84337 -7.4699,22.59638 0,14.75302 7.2831,22.78314 7.4699,7.84337 18.6747,7.84337 z"
     id="text137"
     aria-label="Gao" /><path
     id="path137"
     style="fill:#229da5;fill-opacity:1;stroke-width:1.11562"
     d="m 85.974609,474.26562 c -7.10819,10e-6 -12.830078,5.72189 -12.830078,12.83008 v 170.36914 c 0,7.10819 5.721888,12.83008 12.830078,12.83008 H 292.45508 c 7.10819,0 12.83008,-5.72189 12.83008,-12.83008 V 487.0957 c 0,-7.10819 -5.72189,-12.83008 -12.83008,-12.83008 z m 29.658201,66.24219 h 32.45703 c 5.65627,0 10.20899,7.5247 10.20899,16.8711 v 20.42382 c 0,9.3464 -4.55272,16.8711 -10.20899,16.8711 h -32.45703 c -5.65626,0 -10.20898,-7.5247 -10.20898,-16.8711 v -20.42382 c 0,-9.3464 4.55272,-16.8711 10.20898,-16.8711 z" /><path
     id="path138"
     style="fill:#229da5;stroke-width:1.10687"
     d="m 214.91062,360.42906 120.29455,112.10726 c 9.62117,8.96635 11.80434,32.4053 0,32.36949 -140.18123,-0.42522 -138.87106,-1.2408 -275.322589,2e-5 -11.80037,0.10732 -9.62119,-23.40316 0,-32.36951 L 180.17713,360.42905 c 9.62117,-8.96635 25.11231,-8.96635 34.73349,10e-6 z"
     sodipodi:nodetypes="sssssss" /><path
     id="circle138"
     style="fill:#229da5;stroke-width:1.71588"
     d="m 320.34192,523.72398 a 82.802881,82.802881 0 0 1 -82.80288,82.80288 82.802881,82.802881 0 0 1 -82.80289,-82.80288 82.802881,82.802881 0 0 1 82.80289,-82.80289 82.802881,82.802881 0 0 1 82.80288,82.80289 z" /><path
     id="circle139"
     style="fill:#f37d64;stroke-width:1.28087"
     d="m 299.34964,523.72398 a 61.810605,61.810605 0 0 1 -61.8106,61.8106 61.810605,61.810605 0 0 1 -61.81061,-61.8106 61.810605,61.810605 0 0 1 61.81061,-61.81061 61.810605,61.810605 0 0 1 61.8106,61.81061 z" /><path
     id="rect139"
     style="fill:#f37d64;stroke-width:1.00157"
     d="m 287.37782,569.62159 c 6.98523,-6.65145 18.55845,-5.75791 25.94894,2.00344 l 48.9142,51.36875 c 7.39049,7.76135 7.71676,19.36443 0.73154,26.01588 -6.98522,6.65144 -18.55844,5.7579 -25.94893,-2.00345 l -48.9142,-51.36875 c -7.39049,-7.76135 -7.71676,-19.36443 -0.73155,-26.01587 z" /><path
     id="path139"
     style="fill:#229da5;stroke-width:0.830065"
     d="m 269.6985,577.27883 30.6213,-18.13897 c 0.26717,-0.15826 5.19195,4.42543 11.04211,10.27734 l 1.40799,1.40841 c 5.85015,5.85191 6.61446,7.06287 6.37284,7.25793 l -26.91656,21.72972 c -0.24164,0.19504 -5.19195,-4.42543 -11.04211,-10.27734 l -1.40798,-1.4084 c -5.85016,-5.85191 -10.34477,-10.69043 -10.07759,-10.84869 z"
     sodipodi:nodetypes="sssssssss" /></g></svg>
